<?xml version="1.0" encoding="UTF-8" standalone="no"?>
<svg
   xmlns:dc="http://purl.org/dc/elements/1.1/"
   xmlns:cc="http://creativecommons.org/ns#"
   xmlns:rdf="http://www.w3.org/1999/02/22-rdf-syntax-ns#"
   xmlns:svg="http://www.w3.org/2000/svg"
   xmlns="http://www.w3.org/2000/svg"
   xmlns:sodipodi="http://sodipodi.sourceforge.net/DTD/sodipodi-0.dtd"
   xmlns:inkscape="http://www.inkscape.org/namespaces/inkscape"
   inkscape:version="1.0 (6e3e5246a0, 2020-05-07)"
   sodipodi:docname="ic_launcher.svg"
   id="svg4"
   xml:space="preserve"
   viewBox="-10 -18.5 120 120"
   y="0px"
   x="0px"
   version="1.1"
   fill="#000000">
   <metadata
     id="metadata10"><rdf:RDF><cc:Work
         rdf:about=""><dc:format>image/svg+xml</dc:format><dc:type
           rdf:resource="http://purl.org/dc/dcmitype/StillImage" /><dc:title></dc:title></cc:Work></rdf:RDF></metadata><defs
     id="defs8" /><sodipodi:namedview
     fit-margin-bottom="1"
     fit-margin-top="1"
     units="in"
     inkscape:current-layer="svg4"
     inkscape:window-maximized="0"
     inkscape:window-y="27"
     inkscape:window-x="70"
     inkscape:cy="224.11107"
     inkscape:cx="196.7978"
     inkscape:zoom="2.9"
     inkscape:pagecheckerboard="true"
     lock-margins="false"
     fit-margin-right="1"
     fit-margin-left="1"
     showgrid="false"
     id="namedview6"
     inkscape:window-height="970"
     inkscape:window-width="1850"
     inkscape:pageshadow="2"
     inkscape:pageopacity="0"
     guidetolerance="10"
     gridtolerance="10"
     objecttolerance="10"
     borderopacity="1"
     bordercolor="#666666"
     pagecolor="#ffffff" /><rect
     y="21.44915"
     x="21.386742"
     height="39.815418"
     width="58.154335"
     id="rect837"
     style="fill:#ffffff;fill-opacity:1;stroke-width:0.213333" /><path
     style="fill:#bb690a;fill-opacity:1"
     id="path2"
     d="m 79.48,20.48 h -58 c -0.553,0 -1,0.447 -1,1 v 40 c 0,0.553 0.447,1 1,1 h 58 c 0.553,0 1,-0.447 1,-1 v -40 c 0,-0.553 -0.447,-1 -1,-1 z m -4.414,4 H 25.894 l -2,-2 H 77.066 Z M 35.2,42.993 35.989,41.889 c 0.428,0.972 1.107,1.806 1.954,2.427 -1.56,0.774 -2.831,2.038 -3.611,3.595 -0.453,-1.654 -0.177,-3.456 0.868,-4.918 z m 6.28,0.487 c -1.876,0 -3.442,-1.302 -3.873,-3.047 2.07,-0.117 4.073,-0.702 5.857,-1.762 l 1.965,1.31 c -0.25,1.968 -1.915,3.499 -3.949,3.499 z m 2.555,-6.832 c -0.336,-0.225 -0.773,-0.225 -1.109,0 -1.617,1.078 -3.474,1.695 -5.404,1.808 0.28,-3.64 2.096,-3.976 3.958,-3.976 1.684,0 3.331,0.276 3.838,3.023 z M 41.48,45.48 c 1.287,0 2.564,0.294 3.725,0.689 l -1.39,3.311 h -4.637 l -1.083,-2.95 c 0.964,-0.661 2.13,-1.05 3.385,-1.05 z m -6,6 c 0,-1.259 0.391,-2.427 1.056,-3.393 l 1.005,2.738 c 0.145,0.393 0.52,0.655 0.939,0.655 h 6 c 0.402,0 0.767,-0.241 0.922,-0.613 l 1.659,-3.955 c 0.167,0.076 0.33,0.151 0.485,0.226 0.2,1.496 1.047,2.782 2.268,3.557 l -0.204,0.102 c -2.245,1.123 -3.738,3.246 -4.062,5.684 H 35.48 Z M 55.614,36.455 c 2.069,-0.118 4.068,-0.724 5.85,-1.784 l 1.965,1.31 c -0.25,1.968 -1.915,3.499 -3.949,3.499 -1.868,0 -3.427,-1.291 -3.866,-3.025 z m -0.092,-1.999 c 0.28,-3.64 2.096,-3.976 3.958,-3.976 1.684,0 3.331,0.276 3.838,3.023 l -1.283,-0.855 c -0.336,-0.225 -0.773,-0.225 -1.109,0 -1.618,1.078 -3.475,1.694 -5.404,1.808 z M 55.48,46.48 c 0,1.654 -1.346,3 -3,3 -1.654,0 -3,-1.346 -3,-3 0,-3.509 1.419,-3.8 3,-3.8 1.581,0 3,0.291 3,3.8 z m -4.975,6.105 1.975,-0.987 1.975,0.987 c 1.561,0.78 2.617,2.224 2.924,3.895 h -9.796 c 0.306,-1.671 1.361,-3.114 2.922,-3.895 z m 8.906,3.895 c -0.324,-2.438 -1.816,-4.56 -4.062,-5.684 l -0.204,-0.102 c 1.399,-0.887 2.335,-2.439 2.335,-4.214 0,-1.816 -0.37,-3.179 -1.087,-4.137 0.642,-0.388 1.35,-0.645 2.087,-0.771 v 4.908 h 2 v -4.91 c 2.833,0.478 5,2.942 5,5.91 v 9 z m 3.606,-16.165 c 1.49,-1.092 2.463,-2.85 2.463,-4.835 0,-4.775 -1.906,-7 -6,-7 -4.094,0 -6,2.225 -6,7 0,1.984 0.972,3.741 2.46,4.833 -0.425,0.211 -0.833,0.46 -1.218,0.746 -0.636,-0.25 -1.381,-0.379 -2.242,-0.379 -2.889,0 -4.494,1.409 -4.893,4.276 -0.694,-0.306 -1.464,-0.603 -2.286,-0.853 1.33,-1.102 2.179,-2.765 2.179,-4.623 0,-4.775 -1.906,-7 -6,-7 -3.996,0 -5.902,2.126 -5.991,6.668 l -1.916,2.682 c -1.932,2.703 -1.933,6.271 -0.059,8.986 -0.018,0.22 -0.034,0.44 -0.034,0.664 v 5 h -7 v -30 h 48 v 30 h -7 v -9 c 0,-3.14 -1.823,-5.856 -4.463,-7.165 z M 24.48,25.894 v 31.172 l -2,2 V 23.894 Z m 1.414,32.586 h 49.172 l 2,2 H 23.894 Z M 76.48,57.066 V 25.894 l 2,-2 v 35.172 z" /></svg>
