<svg xmlns="http://www.w3.org/2000/svg" viewBox="-10 -18.5 60 60" width="60" height="60"><rect y="-8.408" x="-9.093" height="39.815" width="58.154" fill="#fff"/><path d="M49-9.5H-9a1 1 0 00-1 1v40a1 1 0 001 1h58a1 1 0 001-1v-40a1 1 0 00-1-1zm-4.414 4H-4.586l-2-2h53.172zM4.72 13.013l.789-1.104a6.024 6.024 0 001.954 2.427 8.038 8.038 0 00-3.611 3.595 5.793 5.793 0 01.868-4.918zM11 13.5c-1.876 0-3.442-1.302-3.873-3.047 2.07-.117 4.073-.702 5.857-1.762l1.965 1.31C14.699 11.969 13.034 13.5 11 13.5zm2.555-6.832a.995.995 0 00-1.109 0 10.86 10.86 0 01-5.404 1.808C7.322 4.836 9.138 4.5 11 4.5c1.684 0 3.331.276 3.838 3.023zM11 15.5c1.287 0 2.564.294 3.725.689l-1.39 3.311H8.698l-1.083-2.95A5.968 5.968 0 0111 15.5zm-6 6c0-1.259.391-2.427 1.056-3.393l1.005 2.738c.145.393.52.655.939.655h6a.999.999 0 00.922-.613l1.659-3.955c.167.076.33.151.485.226a4.985 4.985 0 002.268 3.557l-.204.102a7.426 7.426 0 00-4.062 5.684H5zM25.134 6.475a12.846 12.846 0 005.85-1.784l1.965 1.31C32.699 7.969 31.034 9.5 29 9.5c-1.868 0-3.427-1.291-3.866-3.025zm-.092-1.999C25.322.836 27.138.5 29 .5c1.684 0 3.331.276 3.838 3.023l-1.283-.855a.995.995 0 00-1.109 0 10.876 10.876 0 01-5.404 1.808zM25 16.5c0 1.654-1.346 3-3 3s-3-1.346-3-3c0-3.509 1.419-3.8 3-3.8s3 .291 3 3.8zm-4.975 6.105L22 21.618l1.975.987a5.43 5.43 0 012.924 3.895h-9.796a5.427 5.427 0 012.922-3.895zm8.906 3.895a7.426 7.426 0 00-4.062-5.684l-.204-.102A4.986 4.986 0 0027 16.5c0-1.816-.37-3.179-1.087-4.137A5.973 5.973 0 0128 11.592V16.5h2v-4.91c2.833.478 5 2.942 5 5.91v9zm3.606-16.165A5.987 5.987 0 0035 5.5c0-4.775-1.906-7-6-7s-6 2.225-6 7c0 1.984.972 3.741 2.46 4.833a8.03 8.03 0 00-1.218.746c-.636-.25-1.381-.379-2.242-.379-2.889 0-4.494 1.409-4.893 4.276a20.412 20.412 0 00-2.286-.853A5.992 5.992 0 0017 9.5c0-4.775-1.906-7-6-7-3.996 0-5.902 2.126-5.991 6.668L3.093 11.85c-1.932 2.703-1.933 6.271-.059 8.986-.018.22-.034.44-.034.664v5h-7v-30h48v30h-7v-9c0-3.14-1.823-5.856-4.463-7.165zM-6-4.086v31.172l-2 2V-6.086zM-4.586 28.5h49.172l2 2H-6.586zM46 27.086V-4.086l2-2v35.172z" fill="#bb690a"/></svg>