<?xml version="1.0" encoding="UTF-8" standalone="no"?>
<svg
   xmlns:dc="http://purl.org/dc/elements/1.1/"
   xmlns:cc="http://creativecommons.org/ns#"
   xmlns:rdf="http://www.w3.org/1999/02/22-rdf-syntax-ns#"
   xmlns:svg="http://www.w3.org/2000/svg"
   xmlns="http://www.w3.org/2000/svg"
   xmlns:sodipodi="http://sodipodi.sourceforge.net/DTD/sodipodi-0.dtd"
   xmlns:inkscape="http://www.inkscape.org/namespaces/inkscape"
   inkscape:version="1.0 (6e3e5246a0, 2020-05-07)"
   sodipodi:docname="ic_launcher.svg"
   id="svg4"
   xml:space="preserve"
   viewBox="-10 -18.5 60 60"
   y="0px"
   x="0px"
   version="1.1"
   fill="#000000"
   width="60"
   height="60">
   <metadata
   id="metadata10"><rdf:RDF><cc:Work
       rdf:about=""><dc:format>image/svg+xml</dc:format><dc:type
         rdf:resource="http://purl.org/dc/dcmitype/StillImage" /><dc:title></dc:title></cc:Work></rdf:RDF></metadata><defs
   id="defs8" /><sodipodi:namedview
   fit-margin-bottom="0"
   fit-margin-top="0"
   units="in"
   inkscape:current-layer="svg4"
   inkscape:window-maximized="1"
   inkscape:window-y="27"
   inkscape:window-x="70"
   inkscape:cy="52.941332"
   inkscape:cx="53.904007"
   inkscape:zoom="2.9"
   inkscape:pagecheckerboard="true"
   lock-margins="false"
   fit-margin-right="0"
   fit-margin-left="0"
   showgrid="false"
   id="namedview6"
   inkscape:window-height="1016"
   inkscape:window-width="1850"
   inkscape:pageshadow="2"
   inkscape:pageopacity="0"
   guidetolerance="10"
   gridtolerance="10"
   objecttolerance="10"
   borderopacity="1"
   bordercolor="#666666"
   pagecolor="#ffffff"
   inkscape:document-rotation="0" /><rect
   y="-8.4077091"
   x="-9.0932579"
   height="39.815418"
   width="58.154335"
   id="rect837"
   style="fill:#ffffff;fill-opacity:1;stroke-width:0.213333" /><path
   style="fill:#bb690a;fill-opacity:1"
   id="path2"
   d="M 49,-9.5 H -9 c -0.553,0 -1,0.447 -1,1 v 40 c 0,0.553 0.447,1 1,1 h 58 c 0.553,0 1,-0.447 1,-1 v -40 c 0,-0.553 -0.447,-1 -1,-1 z m -4.414,4 H -4.586 l -2,-2 H 46.586 Z M 4.72,13.013 5.509,11.909 c 0.428,0.972 1.107,1.806 1.954,2.427 C 5.903,15.11 4.632,16.374 3.852,17.931 3.399,16.277 3.675,14.475 4.72,13.013 Z M 11,13.5 C 9.124,13.5 7.558,12.198 7.127,10.453 9.197,10.336 11.2,9.751 12.984,8.691 l 1.965,1.31 C 14.699,11.969 13.034,13.5 11,13.5 Z M 13.555,6.668 C 13.219,6.443 12.782,6.443 12.446,6.668 10.829,7.746 8.972,8.363 7.042,8.476 7.322,4.836 9.138,4.5 11,4.5 c 1.684,0 3.331,0.276 3.838,3.023 z M 11,15.5 c 1.287,0 2.564,0.294 3.725,0.689 L 13.335,19.5 H 8.698 L 7.615,16.55 C 8.579,15.889 9.745,15.5 11,15.5 Z m -6,6 c 0,-1.259 0.391,-2.427 1.056,-3.393 l 1.005,2.738 C 7.206,21.238 7.581,21.5 8,21.5 h 6 c 0.402,0 0.767,-0.241 0.922,-0.613 l 1.659,-3.955 c 0.167,0.076 0.33,0.151 0.485,0.226 0.2,1.496 1.047,2.782 2.268,3.557 l -0.204,0.102 c -2.245,1.123 -3.738,3.246 -4.062,5.684 H 5 Z M 25.134,6.475 c 2.069,-0.118 4.068,-0.724 5.85,-1.784 l 1.965,1.31 C 32.699,7.969 31.034,9.5 29,9.5 27.132,9.5 25.573,8.209 25.134,6.475 Z M 25.042,4.476 C 25.322,0.836 27.138,0.5 29,0.5 c 1.684,0 3.331,0.276 3.838,3.023 L 31.555,2.668 c -0.336,-0.225 -0.773,-0.225 -1.109,0 -1.618,1.078 -3.475,1.694 -5.404,1.808 z M 25,16.5 c 0,1.654 -1.346,3 -3,3 -1.654,0 -3,-1.346 -3,-3 0,-3.509 1.419,-3.8 3,-3.8 1.581,0 3,0.291 3,3.8 z m -4.975,6.105 1.975,-0.987 1.975,0.987 c 1.561,0.78 2.617,2.224 2.924,3.895 h -9.796 c 0.306,-1.671 1.361,-3.114 2.922,-3.895 z M 28.931,26.5 C 28.607,24.062 27.115,21.94 24.869,20.816 L 24.665,20.714 C 26.064,19.827 27,18.275 27,16.5 27,14.684 26.63,13.321 25.913,12.363 26.555,11.975 27.263,11.718 28,11.592 V 16.5 h 2 v -4.91 c 2.833,0.478 5,2.942 5,5.91 v 9 z M 32.537,10.335 C 34.027,9.243 35,7.485 35,5.5 c 0,-4.775 -1.906,-7 -6,-7 -4.094,0 -6,2.225 -6,7 0,1.984 0.972,3.741 2.46,4.833 -0.425,0.211 -0.833,0.46 -1.218,0.746 C 23.606,10.829 22.861,10.7 22,10.7 c -2.889,0 -4.494,1.409 -4.893,4.276 C 16.413,14.67 15.643,14.373 14.821,14.123 16.151,13.021 17,11.358 17,9.5 17,4.725 15.094,2.5 11,2.5 7.004,2.5 5.098,4.626 5.009,9.168 L 3.093,11.85 C 1.161,14.553 1.16,18.121 3.034,20.836 3.016,21.056 3,21.276 3,21.5 v 5 h -7 v -30 h 48 v 30 h -7 v -9 c 0,-3.14 -1.823,-5.856 -4.463,-7.165 z M -6,-4.086 v 31.172 l -2,2 V -6.086 Z M -4.586,28.5 h 49.172 l 2,2 H -6.586 Z M 46,27.086 V -4.086 l 2,-2 v 35.172 z" /></svg>
